<?xml version="1.0" encoding="UTF-8" standalone="no"?>
<!DOCTYPE svg PUBLIC "-//W3C//DTD SVG 1.1//EN"
 "http://www.w3.org/Graphics/SVG/1.1/DTD/svg11.dtd">
<!-- Generated by graphviz version 2.36.0 (20140111.2315)
 -->
<!-- Title: G Pages: 1 -->
<svg width="948pt" height="332pt"
 viewBox="0.00 0.00 948.00 332.00" xmlns="http://www.w3.org/2000/svg" xmlns:xlink="http://www.w3.org/1999/xlink">
<g id="graph0" class="graph" transform="scale(1 1) rotate(0) translate(4 328)">
<title>G</title>
<polygon fill="white" stroke="none" points="-4,4 -4,-328 944,-328 944,4 -4,4"/>
<!-- BindingOutFileNode pbsmrtpipe_examples.tasks.dev_plot_multiple_mapped_ssets&#45;0 PacBio.FileTypes.JsonReport&#45;0.0 -->
<g id="node1" class="node"><title>BindingOutFileNode pbsmrtpipe_examples.tasks.dev_plot_multiple_mapped_ssets&#45;0 PacBio.FileTypes.JsonReport&#45;0.0</title>
<polygon fill="azure" stroke="azure" points="940.455,-10.5442 940.455,-25.4558 664.869,-36 275.131,-36 -0.45468,-25.4558 -0.45468,-10.5442 275.131,-3.55271e-15 664.869,-0 940.455,-10.5442"/>
<text text-anchor="middle" x="470" y="-14.3" font-family="Times,serif" font-size="14.00">BindingOutFileNode pbsmrtpipe_examples.tasks.dev_plot_multiple_mapped_ssets&#45;0 PacBio.FileTypes.JsonReport&#45;0.0</text>
</g>
<!-- EntryPointNode eid_csv PacBio.FileTypes.csv -->
<g id="node2" class="node"><title>EntryPointNode eid_csv PacBio.FileTypes.csv</title>
<polygon fill="mediumpurple" stroke="mediumpurple" points="470,-324 219.984,-306 470,-288 720.016,-306 470,-324"/>
<text text-anchor="middle" x="470" y="-302.3" font-family="Times,serif" font-size="14.00">EntryPointNode eid_csv PacBio.FileTypes.csv</text>
</g>
<!-- EntryOutBindingFileNode PacBio.FileTypes.csv eid_csv -->
<g id="node5" class="node"><title>EntryOutBindingFileNode PacBio.FileTypes.csv eid_csv</title>
<polygon fill="azure" stroke="azure" points="634,-252 306,-252 306,-216 634,-216 634,-252"/>
<text text-anchor="middle" x="470" y="-230.3" font-family="Times,serif" font-size="14.00">EntryOutBindingFileNode PacBio.FileTypes.csv eid_csv</text>
</g>
<!-- EntryPointNode eid_csv PacBio.FileTypes.csv&#45;&gt;EntryOutBindingFileNode PacBio.FileTypes.csv eid_csv -->
<g id="edge1" class="edge"><title>EntryPointNode eid_csv PacBio.FileTypes.csv&#45;&gt;EntryOutBindingFileNode PacBio.FileTypes.csv eid_csv</title>
<path fill="none" stroke="black" d="M470,-287.697C470,-279.983 470,-270.712 470,-262.112"/>
<polygon fill="black" stroke="black" points="473.5,-262.104 470,-252.104 466.5,-262.104 473.5,-262.104"/>
</g>
<!-- TaskBindingNode pbsmrtpipe_examples.tasks.dev_plot_multiple_mapped_ssets&#45;0 -->
<g id="node3" class="node"><title>TaskBindingNode pbsmrtpipe_examples.tasks.dev_plot_multiple_mapped_ssets&#45;0</title>
<polygon fill="aquamarine" stroke="aquamarine" points="798.296,-82.5442 798.296,-97.4558 605.985,-108 334.015,-108 141.704,-97.4558 141.704,-82.5442 334.015,-72 605.985,-72 798.296,-82.5442"/>
<text text-anchor="middle" x="470" y="-86.3" font-family="Times,serif" font-size="14.00">TaskBindingNode pbsmrtpipe_examples.tasks.dev_plot_multiple_mapped_ssets&#45;0</text>
</g>
<!-- TaskBindingNode pbsmrtpipe_examples.tasks.dev_plot_multiple_mapped_ssets&#45;0&#45;&gt;BindingOutFileNode pbsmrtpipe_examples.tasks.dev_plot_multiple_mapped_ssets&#45;0 PacBio.FileTypes.JsonReport&#45;0.0 -->
<g id="edge2" class="edge"><title>TaskBindingNode pbsmrtpipe_examples.tasks.dev_plot_multiple_mapped_ssets&#45;0&#45;&gt;BindingOutFileNode pbsmrtpipe_examples.tasks.dev_plot_multiple_mapped_ssets&#45;0 PacBio.FileTypes.JsonReport&#45;0.0</title>
<path fill="none" stroke="black" d="M470,-71.6966C470,-63.9827 470,-54.7125 470,-46.1124"/>
<polygon fill="black" stroke="black" points="473.5,-46.1043 470,-36.1043 466.5,-46.1044 473.5,-46.1043"/>
</g>
<!-- BindingInFileNode pbsmrtpipe_examples.tasks.dev_plot_multiple_mapped_ssets&#45;0 PacBio.FileTypes.csv&#45;0.0 -->
<g id="node4" class="node"><title>BindingInFileNode pbsmrtpipe_examples.tasks.dev_plot_multiple_mapped_ssets&#45;0 PacBio.FileTypes.csv&#45;0.0</title>
<ellipse fill="azure" stroke="azure" cx="470" cy="-162" rx="401.022" ry="18"/>
<text text-anchor="middle" x="470" y="-158.3" font-family="Times,serif" font-size="14.00">BindingInFileNode pbsmrtpipe_examples.tasks.dev_plot_multiple_mapped_ssets&#45;0 PacBio.FileTypes.csv&#45;0.0</text>
</g>
<!-- BindingInFileNode pbsmrtpipe_examples.tasks.dev_plot_multiple_mapped_ssets&#45;0 PacBio.FileTypes.csv&#45;0.0&#45;&gt;TaskBindingNode pbsmrtpipe_examples.tasks.dev_plot_multiple_mapped_ssets&#45;0 -->
<g id="edge3" class="edge"><title>BindingInFileNode pbsmrtpipe_examples.tasks.dev_plot_multiple_mapped_ssets&#45;0 PacBio.FileTypes.csv&#45;0.0&#45;&gt;TaskBindingNode pbsmrtpipe_examples.tasks.dev_plot_multiple_mapped_ssets&#45;0</title>
<path fill="none" stroke="black" d="M470,-143.697C470,-135.983 470,-126.712 470,-118.112"/>
<polygon fill="black" stroke="black" points="473.5,-118.104 470,-108.104 466.5,-118.104 473.5,-118.104"/>
</g>
<!-- EntryOutBindingFileNode PacBio.FileTypes.csv eid_csv&#45;&gt;BindingInFileNode pbsmrtpipe_examples.tasks.dev_plot_multiple_mapped_ssets&#45;0 PacBio.FileTypes.csv&#45;0.0 -->
<g id="edge4" class="edge"><title>EntryOutBindingFileNode PacBio.FileTypes.csv eid_csv&#45;&gt;BindingInFileNode pbsmrtpipe_examples.tasks.dev_plot_multiple_mapped_ssets&#45;0 PacBio.FileTypes.csv&#45;0.0</title>
<path fill="none" stroke="black" d="M470,-215.697C470,-207.983 470,-198.712 470,-190.112"/>
<polygon fill="black" stroke="black" points="473.5,-190.104 470,-180.104 466.5,-190.104 473.5,-190.104"/>
</g>
</g>
</svg>
