<?xml version="1.0" encoding="UTF-8" standalone="no"?>
<!DOCTYPE svg PUBLIC "-//W3C//DTD SVG 1.1//EN"
 "http://www.w3.org/Graphics/SVG/1.1/DTD/svg11.dtd">
<!-- Generated by graphviz version 2.36.0 (20140111.2315)
 -->
<!-- Title: G Pages: 1 -->
<svg width="1339pt" height="332pt"
 viewBox="0.00 0.00 1339.00 332.00" xmlns="http://www.w3.org/2000/svg" xmlns:xlink="http://www.w3.org/1999/xlink">
<g id="graph0" class="graph" transform="scale(1 1) rotate(0) translate(4 328)">
<title>G</title>
<polygon fill="white" stroke="none" points="-4,4 -4,-328 1335,-328 1335,4 -4,4"/>
<!-- TaskBindingNode pbsmrtpipe_examples.tasks.dev_mh_toy&#45;0 -->
<g id="node1" class="node"><title>TaskBindingNode pbsmrtpipe_examples.tasks.dev_mh_toy&#45;0</title>
<polygon fill="aquamarine" stroke="aquamarine" points="915,-82.5442 915,-97.4558 769.725,-108 564.275,-108 419,-97.4558 419,-82.5442 564.275,-72 769.725,-72 915,-82.5442"/>
<text text-anchor="middle" x="667" y="-86.3" font-family="Times,serif" font-size="14.00">TaskBindingNode pbsmrtpipe_examples.tasks.dev_mh_toy&#45;0</text>
</g>
<!-- BindingOutFileNode pbsmrtpipe_examples.tasks.dev_mh_toy&#45;0 PacBio.FileTypes.JsonReport&#45;0.0 -->
<g id="node8" class="node"><title>BindingOutFileNode pbsmrtpipe_examples.tasks.dev_mh_toy&#45;0 PacBio.FileTypes.JsonReport&#45;0.0</title>
<polygon fill="none" stroke="azure" stroke-dasharray="1,5" points="1057.16,-10.5442 1057.16,-25.4558 828.609,-36 505.391,-36 276.842,-25.4558 276.842,-10.5442 505.391,-3.55271e-15 828.609,-0 1057.16,-10.5442"/>
<text text-anchor="middle" x="667" y="-14.3" font-family="Times,serif" font-size="14.00">BindingOutFileNode pbsmrtpipe_examples.tasks.dev_mh_toy&#45;0 PacBio.FileTypes.JsonReport&#45;0.0</text>
</g>
<!-- TaskBindingNode pbsmrtpipe_examples.tasks.dev_mh_toy&#45;0&#45;&gt;BindingOutFileNode pbsmrtpipe_examples.tasks.dev_mh_toy&#45;0 PacBio.FileTypes.JsonReport&#45;0.0 -->
<g id="edge1" class="edge"><title>TaskBindingNode pbsmrtpipe_examples.tasks.dev_mh_toy&#45;0&#45;&gt;BindingOutFileNode pbsmrtpipe_examples.tasks.dev_mh_toy&#45;0 PacBio.FileTypes.JsonReport&#45;0.0</title>
<path fill="none" stroke="black" d="M667,-71.6966C667,-63.9827 667,-54.7125 667,-46.1124"/>
<polygon fill="black" stroke="black" points="670.5,-46.1043 667,-36.1043 663.5,-46.1044 670.5,-46.1043"/>
</g>
<!-- EntryPointNode eid_plots PacBio.FileTypes.csv -->
<g id="node2" class="node"><title>EntryPointNode eid_plots PacBio.FileTypes.csv</title>
<polygon fill="mediumpurple" stroke="mediumpurple" points="1005,-324 747.954,-306 1005,-288 1262.05,-306 1005,-324"/>
<text text-anchor="middle" x="1005" y="-302.3" font-family="Times,serif" font-size="14.00">EntryPointNode eid_plots PacBio.FileTypes.csv</text>
</g>
<!-- EntryOutBindingFileNode PacBio.FileTypes.csv eid_plots -->
<g id="node7" class="node"><title>EntryOutBindingFileNode PacBio.FileTypes.csv eid_plots</title>
<polygon fill="azure" stroke="azure" points="1172.5,-252 837.5,-252 837.5,-216 1172.5,-216 1172.5,-252"/>
<text text-anchor="middle" x="1005" y="-230.3" font-family="Times,serif" font-size="14.00">EntryOutBindingFileNode PacBio.FileTypes.csv eid_plots</text>
</g>
<!-- EntryPointNode eid_plots PacBio.FileTypes.csv&#45;&gt;EntryOutBindingFileNode PacBio.FileTypes.csv eid_plots -->
<g id="edge2" class="edge"><title>EntryPointNode eid_plots PacBio.FileTypes.csv&#45;&gt;EntryOutBindingFileNode PacBio.FileTypes.csv eid_plots</title>
<path fill="none" stroke="black" d="M1005,-287.697C1005,-279.983 1005,-270.712 1005,-262.112"/>
<polygon fill="black" stroke="black" points="1008.5,-262.104 1005,-252.104 1001.5,-262.104 1008.5,-262.104"/>
</g>
<!-- EntryOutBindingFileNode PacBio.FileTypes.json eid_ssets -->
<g id="node3" class="node"><title>EntryOutBindingFileNode PacBio.FileTypes.json eid_ssets</title>
<polygon fill="azure" stroke="azure" points="500,-252 160,-252 160,-216 500,-216 500,-252"/>
<text text-anchor="middle" x="330" y="-230.3" font-family="Times,serif" font-size="14.00">EntryOutBindingFileNode PacBio.FileTypes.json eid_ssets</text>
</g>
<!-- BindingInFileNode pbsmrtpipe_examples.tasks.dev_mh_toy&#45;0 PacBio.FileTypes.json&#45;0.0 -->
<g id="node5" class="node"><title>BindingInFileNode pbsmrtpipe_examples.tasks.dev_mh_toy&#45;0 PacBio.FileTypes.json&#45;0.0</title>
<ellipse fill="azure" stroke="azure" cx="330" cy="-162" rx="330.256" ry="18"/>
<text text-anchor="middle" x="330" y="-158.3" font-family="Times,serif" font-size="14.00">BindingInFileNode pbsmrtpipe_examples.tasks.dev_mh_toy&#45;0 PacBio.FileTypes.json&#45;0.0</text>
</g>
<!-- EntryOutBindingFileNode PacBio.FileTypes.json eid_ssets&#45;&gt;BindingInFileNode pbsmrtpipe_examples.tasks.dev_mh_toy&#45;0 PacBio.FileTypes.json&#45;0.0 -->
<g id="edge3" class="edge"><title>EntryOutBindingFileNode PacBio.FileTypes.json eid_ssets&#45;&gt;BindingInFileNode pbsmrtpipe_examples.tasks.dev_mh_toy&#45;0 PacBio.FileTypes.json&#45;0.0</title>
<path fill="none" stroke="black" d="M330,-215.697C330,-207.983 330,-198.712 330,-190.112"/>
<polygon fill="black" stroke="black" points="333.5,-190.104 330,-180.104 326.5,-190.104 333.5,-190.104"/>
</g>
<!-- EntryPointNode eid_ssets PacBio.FileTypes.json -->
<g id="node4" class="node"><title>EntryPointNode eid_ssets PacBio.FileTypes.json</title>
<polygon fill="mediumpurple" stroke="mediumpurple" points="330,-324 68.939,-306 330,-288 591.061,-306 330,-324"/>
<text text-anchor="middle" x="330" y="-302.3" font-family="Times,serif" font-size="14.00">EntryPointNode eid_ssets PacBio.FileTypes.json</text>
</g>
<!-- EntryPointNode eid_ssets PacBio.FileTypes.json&#45;&gt;EntryOutBindingFileNode PacBio.FileTypes.json eid_ssets -->
<g id="edge4" class="edge"><title>EntryPointNode eid_ssets PacBio.FileTypes.json&#45;&gt;EntryOutBindingFileNode PacBio.FileTypes.json eid_ssets</title>
<path fill="none" stroke="black" d="M330,-287.697C330,-279.983 330,-270.712 330,-262.112"/>
<polygon fill="black" stroke="black" points="333.5,-262.104 330,-252.104 326.5,-262.104 333.5,-262.104"/>
</g>
<!-- BindingInFileNode pbsmrtpipe_examples.tasks.dev_mh_toy&#45;0 PacBio.FileTypes.json&#45;0.0&#45;&gt;TaskBindingNode pbsmrtpipe_examples.tasks.dev_mh_toy&#45;0 -->
<g id="edge5" class="edge"><title>BindingInFileNode pbsmrtpipe_examples.tasks.dev_mh_toy&#45;0 PacBio.FileTypes.json&#45;0.0&#45;&gt;TaskBindingNode pbsmrtpipe_examples.tasks.dev_mh_toy&#45;0</title>
<path fill="none" stroke="black" d="M409.438,-144.5C459.071,-134.19 523.172,-120.875 575.009,-110.108"/>
<polygon fill="black" stroke="black" points="575.792,-113.52 584.872,-108.059 574.369,-106.666 575.792,-113.52"/>
</g>
<!-- BindingInFileNode pbsmrtpipe_examples.tasks.dev_mh_toy&#45;0 PacBio.FileTypes.csv&#45;0.1 -->
<g id="node6" class="node"><title>BindingInFileNode pbsmrtpipe_examples.tasks.dev_mh_toy&#45;0 PacBio.FileTypes.csv&#45;0.1</title>
<ellipse fill="azure" stroke="azure" cx="1005" cy="-162" rx="326.382" ry="18"/>
<text text-anchor="middle" x="1005" y="-158.3" font-family="Times,serif" font-size="14.00">BindingInFileNode pbsmrtpipe_examples.tasks.dev_mh_toy&#45;0 PacBio.FileTypes.csv&#45;0.1</text>
</g>
<!-- BindingInFileNode pbsmrtpipe_examples.tasks.dev_mh_toy&#45;0 PacBio.FileTypes.csv&#45;0.1&#45;&gt;TaskBindingNode pbsmrtpipe_examples.tasks.dev_mh_toy&#45;0 -->
<g id="edge6" class="edge"><title>BindingInFileNode pbsmrtpipe_examples.tasks.dev_mh_toy&#45;0 PacBio.FileTypes.csv&#45;0.1&#45;&gt;TaskBindingNode pbsmrtpipe_examples.tasks.dev_mh_toy&#45;0</title>
<path fill="none" stroke="black" d="M925.327,-144.5C875.546,-134.19 811.255,-120.875 759.264,-110.108"/>
<polygon fill="black" stroke="black" points="759.874,-106.66 749.372,-108.059 758.455,-113.515 759.874,-106.66"/>
</g>
<!-- EntryOutBindingFileNode PacBio.FileTypes.csv eid_plots&#45;&gt;BindingInFileNode pbsmrtpipe_examples.tasks.dev_mh_toy&#45;0 PacBio.FileTypes.csv&#45;0.1 -->
<g id="edge7" class="edge"><title>EntryOutBindingFileNode PacBio.FileTypes.csv eid_plots&#45;&gt;BindingInFileNode pbsmrtpipe_examples.tasks.dev_mh_toy&#45;0 PacBio.FileTypes.csv&#45;0.1</title>
<path fill="none" stroke="black" d="M1005,-215.697C1005,-207.983 1005,-198.712 1005,-190.112"/>
<polygon fill="black" stroke="black" points="1008.5,-190.104 1005,-180.104 1001.5,-190.104 1008.5,-190.104"/>
</g>
</g>
</svg>
