<?xml version="1.0" encoding="UTF-8" standalone="no"?>
<!DOCTYPE svg PUBLIC "-//W3C//DTD SVG 1.1//EN"
 "http://www.w3.org/Graphics/SVG/1.1/DTD/svg11.dtd">
<!-- Generated by graphviz version 2.36.0 (20140111.2315)
 -->
<!-- Title: G Pages: 1 -->
<svg width="1332pt" height="332pt"
 viewBox="0.00 0.00 1332.00 332.00" xmlns="http://www.w3.org/2000/svg" xmlns:xlink="http://www.w3.org/1999/xlink">
<g id="graph0" class="graph" transform="scale(1 1) rotate(0) translate(4 328)">
<title>G</title>
<polygon fill="white" stroke="none" points="-4,4 -4,-328 1328,-328 1328,4 -4,4"/>
<!-- TaskBindingNode pbsmrtpipe_examples.tasks.dev_mh_toy&#45;0 -->
<g id="node1" class="node"><title>TaskBindingNode pbsmrtpipe_examples.tasks.dev_mh_toy&#45;0</title>
<polygon fill="aquamarine" stroke="aquamarine" points="910,-82.5442 910,-97.4558 764.725,-108 559.275,-108 414,-97.4558 414,-82.5442 559.275,-72 764.725,-72 910,-82.5442"/>
<text text-anchor="middle" x="662" y="-86.3" font-family="Times,serif" font-size="14.00">TaskBindingNode pbsmrtpipe_examples.tasks.dev_mh_toy&#45;0</text>
</g>
<!-- BindingOutFileNode pbsmrtpipe_examples.tasks.dev_mh_toy&#45;0 PacBio.FileTypes.JsonReport&#45;0.0 -->
<g id="node4" class="node"><title>BindingOutFileNode pbsmrtpipe_examples.tasks.dev_mh_toy&#45;0 PacBio.FileTypes.JsonReport&#45;0.0</title>
<polygon fill="none" stroke="azure" stroke-dasharray="1,5" points="1052.16,-10.5442 1052.16,-25.4558 823.609,-36 500.391,-36 271.842,-25.4558 271.842,-10.5442 500.391,-3.55271e-15 823.609,-0 1052.16,-10.5442"/>
<text text-anchor="middle" x="662" y="-14.3" font-family="Times,serif" font-size="14.00">BindingOutFileNode pbsmrtpipe_examples.tasks.dev_mh_toy&#45;0 PacBio.FileTypes.JsonReport&#45;0.0</text>
</g>
<!-- TaskBindingNode pbsmrtpipe_examples.tasks.dev_mh_toy&#45;0&#45;&gt;BindingOutFileNode pbsmrtpipe_examples.tasks.dev_mh_toy&#45;0 PacBio.FileTypes.JsonReport&#45;0.0 -->
<g id="edge1" class="edge"><title>TaskBindingNode pbsmrtpipe_examples.tasks.dev_mh_toy&#45;0&#45;&gt;BindingOutFileNode pbsmrtpipe_examples.tasks.dev_mh_toy&#45;0 PacBio.FileTypes.JsonReport&#45;0.0</title>
<path fill="none" stroke="black" d="M662,-71.6966C662,-63.9827 662,-54.7125 662,-46.1124"/>
<polygon fill="black" stroke="black" points="665.5,-46.1043 662,-36.1043 658.5,-46.1044 665.5,-46.1043"/>
</g>
<!-- EntryOutBindingFileNode PacBio.FileTypes.csv eid_ssets -->
<g id="node2" class="node"><title>EntryOutBindingFileNode PacBio.FileTypes.csv eid_ssets</title>
<polygon fill="azure" stroke="azure" points="493.25,-252 158.75,-252 158.75,-216 493.25,-216 493.25,-252"/>
<text text-anchor="middle" x="326" y="-230.3" font-family="Times,serif" font-size="14.00">EntryOutBindingFileNode PacBio.FileTypes.csv eid_ssets</text>
</g>
<!-- BindingInFileNode pbsmrtpipe_examples.tasks.dev_mh_toy&#45;0 PacBio.FileTypes.csv&#45;0.0 -->
<g id="node7" class="node"><title>BindingInFileNode pbsmrtpipe_examples.tasks.dev_mh_toy&#45;0 PacBio.FileTypes.csv&#45;0.0</title>
<ellipse fill="azure" stroke="azure" cx="326" cy="-162" rx="326.382" ry="18"/>
<text text-anchor="middle" x="326" y="-158.3" font-family="Times,serif" font-size="14.00">BindingInFileNode pbsmrtpipe_examples.tasks.dev_mh_toy&#45;0 PacBio.FileTypes.csv&#45;0.0</text>
</g>
<!-- EntryOutBindingFileNode PacBio.FileTypes.csv eid_ssets&#45;&gt;BindingInFileNode pbsmrtpipe_examples.tasks.dev_mh_toy&#45;0 PacBio.FileTypes.csv&#45;0.0 -->
<g id="edge2" class="edge"><title>EntryOutBindingFileNode PacBio.FileTypes.csv eid_ssets&#45;&gt;BindingInFileNode pbsmrtpipe_examples.tasks.dev_mh_toy&#45;0 PacBio.FileTypes.csv&#45;0.0</title>
<path fill="none" stroke="black" d="M326,-215.697C326,-207.983 326,-198.712 326,-190.112"/>
<polygon fill="black" stroke="black" points="329.5,-190.104 326,-180.104 322.5,-190.104 329.5,-190.104"/>
</g>
<!-- EntryPointNode eid_ssets PacBio.FileTypes.csv -->
<g id="node3" class="node"><title>EntryPointNode eid_ssets PacBio.FileTypes.csv</title>
<polygon fill="mediumpurple" stroke="mediumpurple" points="326,-324 69.8326,-306 326,-288 582.167,-306 326,-324"/>
<text text-anchor="middle" x="326" y="-302.3" font-family="Times,serif" font-size="14.00">EntryPointNode eid_ssets PacBio.FileTypes.csv</text>
</g>
<!-- EntryPointNode eid_ssets PacBio.FileTypes.csv&#45;&gt;EntryOutBindingFileNode PacBio.FileTypes.csv eid_ssets -->
<g id="edge3" class="edge"><title>EntryPointNode eid_ssets PacBio.FileTypes.csv&#45;&gt;EntryOutBindingFileNode PacBio.FileTypes.csv eid_ssets</title>
<path fill="none" stroke="black" d="M326,-287.697C326,-279.983 326,-270.712 326,-262.112"/>
<polygon fill="black" stroke="black" points="329.5,-262.104 326,-252.104 322.5,-262.104 329.5,-262.104"/>
</g>
<!-- EntryOutBindingFileNode PacBio.FileTypes.csv eid_plots -->
<g id="node5" class="node"><title>EntryOutBindingFileNode PacBio.FileTypes.csv eid_plots</title>
<polygon fill="azure" stroke="azure" points="1165.5,-252 830.5,-252 830.5,-216 1165.5,-216 1165.5,-252"/>
<text text-anchor="middle" x="998" y="-230.3" font-family="Times,serif" font-size="14.00">EntryOutBindingFileNode PacBio.FileTypes.csv eid_plots</text>
</g>
<!-- BindingInFileNode pbsmrtpipe_examples.tasks.dev_mh_toy&#45;0 PacBio.FileTypes.csv&#45;0.1 -->
<g id="node8" class="node"><title>BindingInFileNode pbsmrtpipe_examples.tasks.dev_mh_toy&#45;0 PacBio.FileTypes.csv&#45;0.1</title>
<ellipse fill="azure" stroke="azure" cx="998" cy="-162" rx="326.382" ry="18"/>
<text text-anchor="middle" x="998" y="-158.3" font-family="Times,serif" font-size="14.00">BindingInFileNode pbsmrtpipe_examples.tasks.dev_mh_toy&#45;0 PacBio.FileTypes.csv&#45;0.1</text>
</g>
<!-- EntryOutBindingFileNode PacBio.FileTypes.csv eid_plots&#45;&gt;BindingInFileNode pbsmrtpipe_examples.tasks.dev_mh_toy&#45;0 PacBio.FileTypes.csv&#45;0.1 -->
<g id="edge4" class="edge"><title>EntryOutBindingFileNode PacBio.FileTypes.csv eid_plots&#45;&gt;BindingInFileNode pbsmrtpipe_examples.tasks.dev_mh_toy&#45;0 PacBio.FileTypes.csv&#45;0.1</title>
<path fill="none" stroke="black" d="M998,-215.697C998,-207.983 998,-198.712 998,-190.112"/>
<polygon fill="black" stroke="black" points="1001.5,-190.104 998,-180.104 994.5,-190.104 1001.5,-190.104"/>
</g>
<!-- EntryPointNode eid_plots PacBio.FileTypes.csv -->
<g id="node6" class="node"><title>EntryPointNode eid_plots PacBio.FileTypes.csv</title>
<polygon fill="mediumpurple" stroke="mediumpurple" points="998,-324 740.954,-306 998,-288 1255.05,-306 998,-324"/>
<text text-anchor="middle" x="998" y="-302.3" font-family="Times,serif" font-size="14.00">EntryPointNode eid_plots PacBio.FileTypes.csv</text>
</g>
<!-- EntryPointNode eid_plots PacBio.FileTypes.csv&#45;&gt;EntryOutBindingFileNode PacBio.FileTypes.csv eid_plots -->
<g id="edge5" class="edge"><title>EntryPointNode eid_plots PacBio.FileTypes.csv&#45;&gt;EntryOutBindingFileNode PacBio.FileTypes.csv eid_plots</title>
<path fill="none" stroke="black" d="M998,-287.697C998,-279.983 998,-270.712 998,-262.112"/>
<polygon fill="black" stroke="black" points="1001.5,-262.104 998,-252.104 994.5,-262.104 1001.5,-262.104"/>
</g>
<!-- BindingInFileNode pbsmrtpipe_examples.tasks.dev_mh_toy&#45;0 PacBio.FileTypes.csv&#45;0.0&#45;&gt;TaskBindingNode pbsmrtpipe_examples.tasks.dev_mh_toy&#45;0 -->
<g id="edge6" class="edge"><title>BindingInFileNode pbsmrtpipe_examples.tasks.dev_mh_toy&#45;0 PacBio.FileTypes.csv&#45;0.0&#45;&gt;TaskBindingNode pbsmrtpipe_examples.tasks.dev_mh_toy&#45;0</title>
<path fill="none" stroke="black" d="M405.202,-144.5C454.688,-134.19 518.599,-120.875 570.282,-110.108"/>
<polygon fill="black" stroke="black" points="571.039,-113.525 580.115,-108.059 569.612,-106.673 571.039,-113.525"/>
</g>
<!-- BindingInFileNode pbsmrtpipe_examples.tasks.dev_mh_toy&#45;0 PacBio.FileTypes.csv&#45;0.1&#45;&gt;TaskBindingNode pbsmrtpipe_examples.tasks.dev_mh_toy&#45;0 -->
<g id="edge7" class="edge"><title>BindingInFileNode pbsmrtpipe_examples.tasks.dev_mh_toy&#45;0 PacBio.FileTypes.csv&#45;0.1&#45;&gt;TaskBindingNode pbsmrtpipe_examples.tasks.dev_mh_toy&#45;0</title>
<path fill="none" stroke="black" d="M918.798,-144.5C869.312,-134.19 805.401,-120.875 753.718,-110.108"/>
<polygon fill="black" stroke="black" points="754.388,-106.673 743.885,-108.059 752.961,-113.525 754.388,-106.673"/>
</g>
</g>
</svg>
