<?xml version="1.0" encoding="UTF-8" standalone="no"?>
<!DOCTYPE svg PUBLIC "-//W3C//DTD SVG 1.1//EN"
 "http://www.w3.org/Graphics/SVG/1.1/DTD/svg11.dtd">
<!-- Generated by graphviz version 2.36.0 (20140111.2315)
 -->
<!-- Title: G Pages: 1 -->
<svg width="960pt" height="332pt"
 viewBox="0.00 0.00 960.00 332.00" xmlns="http://www.w3.org/2000/svg" xmlns:xlink="http://www.w3.org/1999/xlink">
<g id="graph0" class="graph" transform="scale(1 1) rotate(0) translate(4 328)">
<title>G</title>
<polygon fill="white" stroke="none" points="-4,4 -4,-328 956,-328 956,4 -4,4"/>
<!-- BindingOutFileNode pbsmrtpipe_examples.tasks.dev_interact_with_multiple_mapped_ssets&#45;0 PacBio.FileTypes.csv&#45;0.0 -->
<g id="node1" class="node"><title>BindingOutFileNode pbsmrtpipe_examples.tasks.dev_interact_with_multiple_mapped_ssets&#45;0 PacBio.FileTypes.csv&#45;0.0</title>
<polygon fill="none" stroke="azure" stroke-dasharray="1,5" points="951.897,-10.5442 951.897,-25.4558 673.123,-36 278.877,-36 0.103175,-25.4558 0.103175,-10.5442 278.877,-3.55271e-15 673.123,-0 951.897,-10.5442"/>
<text text-anchor="middle" x="476" y="-14.3" font-family="Times,serif" font-size="14.00">BindingOutFileNode pbsmrtpipe_examples.tasks.dev_interact_with_multiple_mapped_ssets&#45;0 PacBio.FileTypes.csv&#45;0.0</text>
</g>
<!-- EntryPointNode eid_csv PacBio.FileTypes.csv -->
<g id="node2" class="node"><title>EntryPointNode eid_csv PacBio.FileTypes.csv</title>
<polygon fill="mediumpurple" stroke="mediumpurple" points="476,-324 225.984,-306 476,-288 726.016,-306 476,-324"/>
<text text-anchor="middle" x="476" y="-302.3" font-family="Times,serif" font-size="14.00">EntryPointNode eid_csv PacBio.FileTypes.csv</text>
</g>
<!-- EntryOutBindingFileNode PacBio.FileTypes.csv eid_csv -->
<g id="node5" class="node"><title>EntryOutBindingFileNode PacBio.FileTypes.csv eid_csv</title>
<polygon fill="azure" stroke="azure" points="640,-252 312,-252 312,-216 640,-216 640,-252"/>
<text text-anchor="middle" x="476" y="-230.3" font-family="Times,serif" font-size="14.00">EntryOutBindingFileNode PacBio.FileTypes.csv eid_csv</text>
</g>
<!-- EntryPointNode eid_csv PacBio.FileTypes.csv&#45;&gt;EntryOutBindingFileNode PacBio.FileTypes.csv eid_csv -->
<g id="edge1" class="edge"><title>EntryPointNode eid_csv PacBio.FileTypes.csv&#45;&gt;EntryOutBindingFileNode PacBio.FileTypes.csv eid_csv</title>
<path fill="none" stroke="black" d="M476,-287.697C476,-279.983 476,-270.712 476,-262.112"/>
<polygon fill="black" stroke="black" points="479.5,-262.104 476,-252.104 472.5,-262.104 479.5,-262.104"/>
</g>
<!-- BindingInFileNode pbsmrtpipe_examples.tasks.dev_interact_with_multiple_mapped_ssets&#45;0 PacBio.FileTypes.csv&#45;0.0 -->
<g id="node3" class="node"><title>BindingInFileNode pbsmrtpipe_examples.tasks.dev_interact_with_multiple_mapped_ssets&#45;0 PacBio.FileTypes.csv&#45;0.0</title>
<ellipse fill="azure" stroke="azure" cx="476" cy="-162" rx="434.242" ry="18"/>
<text text-anchor="middle" x="476" y="-158.3" font-family="Times,serif" font-size="14.00">BindingInFileNode pbsmrtpipe_examples.tasks.dev_interact_with_multiple_mapped_ssets&#45;0 PacBio.FileTypes.csv&#45;0.0</text>
</g>
<!-- TaskBindingNode pbsmrtpipe_examples.tasks.dev_interact_with_multiple_mapped_ssets&#45;0 -->
<g id="node4" class="node"><title>TaskBindingNode pbsmrtpipe_examples.tasks.dev_interact_with_multiple_mapped_ssets&#45;0</title>
<polygon fill="aquamarine" stroke="aquamarine" points="840.114,-82.5442 840.114,-97.4558 626.821,-108 325.179,-108 111.886,-97.4558 111.886,-82.5442 325.179,-72 626.821,-72 840.114,-82.5442"/>
<text text-anchor="middle" x="476" y="-86.3" font-family="Times,serif" font-size="14.00">TaskBindingNode pbsmrtpipe_examples.tasks.dev_interact_with_multiple_mapped_ssets&#45;0</text>
</g>
<!-- BindingInFileNode pbsmrtpipe_examples.tasks.dev_interact_with_multiple_mapped_ssets&#45;0 PacBio.FileTypes.csv&#45;0.0&#45;&gt;TaskBindingNode pbsmrtpipe_examples.tasks.dev_interact_with_multiple_mapped_ssets&#45;0 -->
<g id="edge2" class="edge"><title>BindingInFileNode pbsmrtpipe_examples.tasks.dev_interact_with_multiple_mapped_ssets&#45;0 PacBio.FileTypes.csv&#45;0.0&#45;&gt;TaskBindingNode pbsmrtpipe_examples.tasks.dev_interact_with_multiple_mapped_ssets&#45;0</title>
<path fill="none" stroke="black" d="M476,-143.697C476,-135.983 476,-126.712 476,-118.112"/>
<polygon fill="black" stroke="black" points="479.5,-118.104 476,-108.104 472.5,-118.104 479.5,-118.104"/>
</g>
<!-- TaskBindingNode pbsmrtpipe_examples.tasks.dev_interact_with_multiple_mapped_ssets&#45;0&#45;&gt;BindingOutFileNode pbsmrtpipe_examples.tasks.dev_interact_with_multiple_mapped_ssets&#45;0 PacBio.FileTypes.csv&#45;0.0 -->
<g id="edge3" class="edge"><title>TaskBindingNode pbsmrtpipe_examples.tasks.dev_interact_with_multiple_mapped_ssets&#45;0&#45;&gt;BindingOutFileNode pbsmrtpipe_examples.tasks.dev_interact_with_multiple_mapped_ssets&#45;0 PacBio.FileTypes.csv&#45;0.0</title>
<path fill="none" stroke="black" d="M476,-71.6966C476,-63.9827 476,-54.7125 476,-46.1124"/>
<polygon fill="black" stroke="black" points="479.5,-46.1043 476,-36.1043 472.5,-46.1044 479.5,-46.1043"/>
</g>
<!-- EntryOutBindingFileNode PacBio.FileTypes.csv eid_csv&#45;&gt;BindingInFileNode pbsmrtpipe_examples.tasks.dev_interact_with_multiple_mapped_ssets&#45;0 PacBio.FileTypes.csv&#45;0.0 -->
<g id="edge4" class="edge"><title>EntryOutBindingFileNode PacBio.FileTypes.csv eid_csv&#45;&gt;BindingInFileNode pbsmrtpipe_examples.tasks.dev_interact_with_multiple_mapped_ssets&#45;0 PacBio.FileTypes.csv&#45;0.0</title>
<path fill="none" stroke="black" d="M476,-215.697C476,-207.983 476,-198.712 476,-190.112"/>
<polygon fill="black" stroke="black" points="479.5,-190.104 476,-180.104 472.5,-190.104 479.5,-190.104"/>
</g>
</g>
</svg>
