<?xml version="1.0" encoding="UTF-8" standalone="no"?>
<!DOCTYPE svg PUBLIC "-//W3C//DTD SVG 1.1//EN"
 "http://www.w3.org/Graphics/SVG/1.1/DTD/svg11.dtd">
<!-- Generated by graphviz version 2.28.0 (20160218.2127)
 -->
<!-- Title: G Pages: 1 -->
<svg width="1402pt" height="332pt"
 viewBox="0.00 0.00 1402.00 332.00" xmlns="http://www.w3.org/2000/svg" xmlns:xlink="http://www.w3.org/1999/xlink">
<g id="graph1" class="graph" transform="scale(1 1) rotate(0) translate(4 328)">
<title>G</title>
<polygon fill="white" stroke="white" points="-4,5 -4,-328 1399,-328 1399,5 -4,5"/>
<!-- TaskBindingNode pbsmrtpipe_examples.tasks.dev_mh_toy&#45;0 -->
<g id="node1" class="node"><title>TaskBindingNode pbsmrtpipe_examples.tasks.dev_mh_toy&#45;0</title>
<polygon fill="aquamarine" stroke="aquamarine" points="958.411,-82.5442 958.411,-97.4558 806.451,-108 591.549,-108 439.589,-97.4558 439.589,-82.5442 591.549,-72 806.451,-72 958.411,-82.5442"/>
<text text-anchor="middle" x="699" y="-85.4" font-family="Times,serif" font-size="14.00">TaskBindingNode pbsmrtpipe_examples.tasks.dev_mh_toy&#45;0</text>
</g>
<!-- BindingOutFileNode pbsmrtpipe_examples.tasks.dev_mh_toy&#45;0 PacBio.FileTypes.JsonReport&#45;0.0 -->
<g id="node8" class="node"><title>BindingOutFileNode pbsmrtpipe_examples.tasks.dev_mh_toy&#45;0 PacBio.FileTypes.JsonReport&#45;0.0</title>
<polygon fill="azure" stroke="azure" points="1109.36,-10.5442 1109.36,-25.4558 868.978,-36 529.022,-36 288.638,-25.4558 288.638,-10.5442 529.022,-3.55271e-15 868.978,-0 1109.36,-10.5442"/>
<text text-anchor="middle" x="699" y="-13.4" font-family="Times,serif" font-size="14.00">BindingOutFileNode pbsmrtpipe_examples.tasks.dev_mh_toy&#45;0 PacBio.FileTypes.JsonReport&#45;0.0</text>
</g>
<!-- TaskBindingNode pbsmrtpipe_examples.tasks.dev_mh_toy&#45;0&#45;&gt;BindingOutFileNode pbsmrtpipe_examples.tasks.dev_mh_toy&#45;0 PacBio.FileTypes.JsonReport&#45;0.0 -->
<g id="edge2" class="edge"><title>TaskBindingNode pbsmrtpipe_examples.tasks.dev_mh_toy&#45;0&#45;&gt;BindingOutFileNode pbsmrtpipe_examples.tasks.dev_mh_toy&#45;0 PacBio.FileTypes.JsonReport&#45;0.0</title>
<path fill="none" stroke="black" d="M699,-71.6966C699,-63.9827 699,-54.7125 699,-46.1124"/>
<polygon fill="black" stroke="black" points="702.5,-46.1043 699,-36.1043 695.5,-46.1044 702.5,-46.1043"/>
</g>
<!-- EntryPointNode eid_plots PacBio.FileTypes.csv -->
<g id="node2" class="node"><title>EntryPointNode eid_plots PacBio.FileTypes.csv</title>
<polygon fill="mediumpurple" stroke="mediumpurple" points="1052,-324 781.938,-306 1052,-288 1322.06,-306 1052,-324"/>
<text text-anchor="middle" x="1052" y="-301.4" font-family="Times,serif" font-size="14.00">EntryPointNode eid_plots PacBio.FileTypes.csv</text>
</g>
<!-- EntryOutBindingFileNode PacBio.FileTypes.csv eid_plots -->
<g id="node7" class="node"><title>EntryOutBindingFileNode PacBio.FileTypes.csv eid_plots</title>
<polygon fill="azure" stroke="azure" points="1223.25,-252 880.75,-252 880.75,-216 1223.25,-216 1223.25,-252"/>
<text text-anchor="middle" x="1052" y="-229.4" font-family="Times,serif" font-size="14.00">EntryOutBindingFileNode PacBio.FileTypes.csv eid_plots</text>
</g>
<!-- EntryPointNode eid_plots PacBio.FileTypes.csv&#45;&gt;EntryOutBindingFileNode PacBio.FileTypes.csv eid_plots -->
<g id="edge4" class="edge"><title>EntryPointNode eid_plots PacBio.FileTypes.csv&#45;&gt;EntryOutBindingFileNode PacBio.FileTypes.csv eid_plots</title>
<path fill="none" stroke="black" d="M1052,-287.697C1052,-279.983 1052,-270.712 1052,-262.112"/>
<polygon fill="black" stroke="black" points="1055.5,-262.104 1052,-252.104 1048.5,-262.104 1055.5,-262.104"/>
</g>
<!-- EntryOutBindingFileNode PacBio.FileTypes.json eid_ssets -->
<g id="node3" class="node"><title>EntryOutBindingFileNode PacBio.FileTypes.json eid_ssets</title>
<polygon fill="azure" stroke="azure" points="519.25,-252 172.75,-252 172.75,-216 519.25,-216 519.25,-252"/>
<text text-anchor="middle" x="346" y="-229.4" font-family="Times,serif" font-size="14.00">EntryOutBindingFileNode PacBio.FileTypes.json eid_ssets</text>
</g>
<!-- BindingInFileNode pbsmrtpipe_examples.tasks.dev_mh_toy&#45;0 PacBio.FileTypes.json&#45;0.0 -->
<g id="node5" class="node"><title>BindingInFileNode pbsmrtpipe_examples.tasks.dev_mh_toy&#45;0 PacBio.FileTypes.json&#45;0.0</title>
<ellipse fill="azure" stroke="azure" cx="346" cy="-162" rx="346.215" ry="18"/>
<text text-anchor="middle" x="346" y="-157.4" font-family="Times,serif" font-size="14.00">BindingInFileNode pbsmrtpipe_examples.tasks.dev_mh_toy&#45;0 PacBio.FileTypes.json&#45;0.0</text>
</g>
<!-- EntryOutBindingFileNode PacBio.FileTypes.json eid_ssets&#45;&gt;BindingInFileNode pbsmrtpipe_examples.tasks.dev_mh_toy&#45;0 PacBio.FileTypes.json&#45;0.0 -->
<g id="edge6" class="edge"><title>EntryOutBindingFileNode PacBio.FileTypes.json eid_ssets&#45;&gt;BindingInFileNode pbsmrtpipe_examples.tasks.dev_mh_toy&#45;0 PacBio.FileTypes.json&#45;0.0</title>
<path fill="none" stroke="black" d="M346,-215.697C346,-207.983 346,-198.712 346,-190.112"/>
<polygon fill="black" stroke="black" points="349.5,-190.104 346,-180.104 342.5,-190.104 349.5,-190.104"/>
</g>
<!-- EntryPointNode eid_ssets PacBio.FileTypes.json -->
<g id="node4" class="node"><title>EntryPointNode eid_ssets PacBio.FileTypes.json</title>
<polygon fill="mediumpurple" stroke="mediumpurple" points="346,-324 71.7457,-306 346,-288 620.254,-306 346,-324"/>
<text text-anchor="middle" x="346" y="-301.4" font-family="Times,serif" font-size="14.00">EntryPointNode eid_ssets PacBio.FileTypes.json</text>
</g>
<!-- EntryPointNode eid_ssets PacBio.FileTypes.json&#45;&gt;EntryOutBindingFileNode PacBio.FileTypes.json eid_ssets -->
<g id="edge8" class="edge"><title>EntryPointNode eid_ssets PacBio.FileTypes.json&#45;&gt;EntryOutBindingFileNode PacBio.FileTypes.json eid_ssets</title>
<path fill="none" stroke="black" d="M346,-287.697C346,-279.983 346,-270.712 346,-262.112"/>
<polygon fill="black" stroke="black" points="349.5,-262.104 346,-252.104 342.5,-262.104 349.5,-262.104"/>
</g>
<!-- BindingInFileNode pbsmrtpipe_examples.tasks.dev_mh_toy&#45;0 PacBio.FileTypes.json&#45;0.0&#45;&gt;TaskBindingNode pbsmrtpipe_examples.tasks.dev_mh_toy&#45;0 -->
<g id="edge10" class="edge"><title>BindingInFileNode pbsmrtpipe_examples.tasks.dev_mh_toy&#45;0 PacBio.FileTypes.json&#45;0.0&#45;&gt;TaskBindingNode pbsmrtpipe_examples.tasks.dev_mh_toy&#45;0</title>
<path fill="none" stroke="black" d="M429.209,-144.5C481.307,-134.169 548.623,-120.82 602.98,-110.041"/>
<polygon fill="black" stroke="black" points="603.844,-113.438 612.972,-108.059 602.482,-106.571 603.844,-113.438"/>
</g>
<!-- BindingInFileNode pbsmrtpipe_examples.tasks.dev_mh_toy&#45;0 PacBio.FileTypes.csv&#45;0.1 -->
<g id="node6" class="node"><title>BindingInFileNode pbsmrtpipe_examples.tasks.dev_mh_toy&#45;0 PacBio.FileTypes.csv&#45;0.1</title>
<ellipse fill="azure" stroke="azure" cx="1052" cy="-162" rx="342.178" ry="18"/>
<text text-anchor="middle" x="1052" y="-157.4" font-family="Times,serif" font-size="14.00">BindingInFileNode pbsmrtpipe_examples.tasks.dev_mh_toy&#45;0 PacBio.FileTypes.csv&#45;0.1</text>
</g>
<!-- BindingInFileNode pbsmrtpipe_examples.tasks.dev_mh_toy&#45;0 PacBio.FileTypes.csv&#45;0.1&#45;&gt;TaskBindingNode pbsmrtpipe_examples.tasks.dev_mh_toy&#45;0 -->
<g id="edge12" class="edge"><title>BindingInFileNode pbsmrtpipe_examples.tasks.dev_mh_toy&#45;0 PacBio.FileTypes.csv&#45;0.1&#45;&gt;TaskBindingNode pbsmrtpipe_examples.tasks.dev_mh_toy&#45;0</title>
<path fill="none" stroke="black" d="M968.791,-144.5C916.693,-134.169 849.377,-120.82 795.02,-110.041"/>
<polygon fill="black" stroke="black" points="795.518,-106.571 785.028,-108.059 794.156,-113.438 795.518,-106.571"/>
</g>
<!-- EntryOutBindingFileNode PacBio.FileTypes.csv eid_plots&#45;&gt;BindingInFileNode pbsmrtpipe_examples.tasks.dev_mh_toy&#45;0 PacBio.FileTypes.csv&#45;0.1 -->
<g id="edge14" class="edge"><title>EntryOutBindingFileNode PacBio.FileTypes.csv eid_plots&#45;&gt;BindingInFileNode pbsmrtpipe_examples.tasks.dev_mh_toy&#45;0 PacBio.FileTypes.csv&#45;0.1</title>
<path fill="none" stroke="black" d="M1052,-215.697C1052,-207.983 1052,-198.712 1052,-190.112"/>
<polygon fill="black" stroke="black" points="1055.5,-190.104 1052,-180.104 1048.5,-190.104 1055.5,-190.104"/>
</g>
</g>
</svg>
