<?xml version="1.0" encoding="UTF-8" standalone="no"?>
<!DOCTYPE svg PUBLIC "-//W3C//DTD SVG 1.1//EN"
 "http://www.w3.org/Graphics/SVG/1.1/DTD/svg11.dtd">
<!-- Generated by graphviz version 2.36.0 (20140111.2315)
 -->
<!-- Title: G Pages: 1 -->
<svg width="794pt" height="548pt"
 viewBox="0.00 0.00 794.00 548.00" xmlns="http://www.w3.org/2000/svg" xmlns:xlink="http://www.w3.org/1999/xlink">
<g id="graph0" class="graph" transform="scale(1 1) rotate(0) translate(4 544)">
<title>G</title>
<polygon fill="white" stroke="none" points="-4,4 -4,-544 790,-544 790,4 -4,4"/>
<!-- TaskBindingNode pbsmrtpipe_examples.tasks.dev_mk_example_txt&#45;0 -->
<g id="node1" class="node"><title>TaskBindingNode pbsmrtpipe_examples.tasks.dev_mk_example_txt&#45;0</title>
<polygon fill="aquamarine" stroke="aquamarine" points="677.317,-298.544 677.317,-313.456 510.768,-324 275.232,-324 108.683,-313.456 108.683,-298.544 275.232,-288 510.768,-288 677.317,-298.544"/>
<text text-anchor="middle" x="393" y="-302.3" font-family="Times,serif" font-size="14.00">TaskBindingNode pbsmrtpipe_examples.tasks.dev_mk_example_txt&#45;0</text>
</g>
<!-- BindingOutFileNode pbsmrtpipe_examples.tasks.dev_mk_example_txt&#45;0 PacBio.FileTypes.txt&#45;0.0 -->
<g id="node4" class="node"><title>BindingOutFileNode pbsmrtpipe_examples.tasks.dev_mk_example_txt&#45;0 PacBio.FileTypes.txt&#45;0.0</title>
<polygon fill="azure" stroke="azure" points="785.879,-226.544 785.879,-241.456 555.736,-252 230.264,-252 0.121296,-241.456 0.121296,-226.544 230.264,-216 555.736,-216 785.879,-226.544"/>
<text text-anchor="middle" x="393" y="-230.3" font-family="Times,serif" font-size="14.00">BindingOutFileNode pbsmrtpipe_examples.tasks.dev_mk_example_txt&#45;0 PacBio.FileTypes.txt&#45;0.0</text>
</g>
<!-- TaskBindingNode pbsmrtpipe_examples.tasks.dev_mk_example_txt&#45;0&#45;&gt;BindingOutFileNode pbsmrtpipe_examples.tasks.dev_mk_example_txt&#45;0 PacBio.FileTypes.txt&#45;0.0 -->
<g id="edge1" class="edge"><title>TaskBindingNode pbsmrtpipe_examples.tasks.dev_mk_example_txt&#45;0&#45;&gt;BindingOutFileNode pbsmrtpipe_examples.tasks.dev_mk_example_txt&#45;0 PacBio.FileTypes.txt&#45;0.0</title>
<path fill="none" stroke="black" d="M393,-287.697C393,-279.983 393,-270.712 393,-262.112"/>
<polygon fill="black" stroke="black" points="396.5,-262.104 393,-252.104 389.5,-262.104 396.5,-262.104"/>
</g>
<!-- TaskBindingNode pbsmrtpipe.tasks.dev_txt_to_fasta&#45;0 -->
<g id="node2" class="node"><title>TaskBindingNode pbsmrtpipe.tasks.dev_txt_to_fasta&#45;0</title>
<polygon fill="aquamarine" stroke="aquamarine" points="616.011,-82.5442 616.011,-97.4558 485.374,-108 300.626,-108 169.989,-97.4558 169.989,-82.5442 300.626,-72 485.374,-72 616.011,-82.5442"/>
<text text-anchor="middle" x="393" y="-86.3" font-family="Times,serif" font-size="14.00">TaskBindingNode pbsmrtpipe.tasks.dev_txt_to_fasta&#45;0</text>
</g>
<!-- BindingOutFileNode pbsmrtpipe.tasks.dev_txt_to_fasta&#45;0 PacBio.FileTypes.Fasta&#45;0.0 -->
<g id="node6" class="node"><title>BindingOutFileNode pbsmrtpipe.tasks.dev_txt_to_fasta&#45;0 PacBio.FileTypes.Fasta&#45;0.0</title>
<polygon fill="azure" stroke="azure" points="734.346,-10.5442 734.346,-25.4558 534.39,-36 251.61,-36 51.6538,-25.4558 51.6538,-10.5442 251.61,-3.55271e-15 534.39,-0 734.346,-10.5442"/>
<text text-anchor="middle" x="393" y="-14.3" font-family="Times,serif" font-size="14.00">BindingOutFileNode pbsmrtpipe.tasks.dev_txt_to_fasta&#45;0 PacBio.FileTypes.Fasta&#45;0.0</text>
</g>
<!-- TaskBindingNode pbsmrtpipe.tasks.dev_txt_to_fasta&#45;0&#45;&gt;BindingOutFileNode pbsmrtpipe.tasks.dev_txt_to_fasta&#45;0 PacBio.FileTypes.Fasta&#45;0.0 -->
<g id="edge2" class="edge"><title>TaskBindingNode pbsmrtpipe.tasks.dev_txt_to_fasta&#45;0&#45;&gt;BindingOutFileNode pbsmrtpipe.tasks.dev_txt_to_fasta&#45;0 PacBio.FileTypes.Fasta&#45;0.0</title>
<path fill="none" stroke="black" d="M393,-71.6966C393,-63.9827 393,-54.7125 393,-46.1124"/>
<polygon fill="black" stroke="black" points="396.5,-46.1043 393,-36.1043 389.5,-46.1044 396.5,-46.1043"/>
</g>
<!-- EntryPointNode eid_txt PacBio.FileTypes.txt -->
<g id="node3" class="node"><title>EntryPointNode eid_txt PacBio.FileTypes.txt</title>
<polygon fill="mediumpurple" stroke="mediumpurple" points="393,-540 150.514,-522 393,-504 635.486,-522 393,-540"/>
<text text-anchor="middle" x="393" y="-518.3" font-family="Times,serif" font-size="14.00">EntryPointNode eid_txt PacBio.FileTypes.txt</text>
</g>
<!-- EntryOutBindingFileNode PacBio.FileTypes.txt eid_txt -->
<g id="node8" class="node"><title>EntryOutBindingFileNode PacBio.FileTypes.txt eid_txt</title>
<polygon fill="azure" stroke="azure" points="553,-468 233,-468 233,-432 553,-432 553,-468"/>
<text text-anchor="middle" x="393" y="-446.3" font-family="Times,serif" font-size="14.00">EntryOutBindingFileNode PacBio.FileTypes.txt eid_txt</text>
</g>
<!-- EntryPointNode eid_txt PacBio.FileTypes.txt&#45;&gt;EntryOutBindingFileNode PacBio.FileTypes.txt eid_txt -->
<g id="edge3" class="edge"><title>EntryPointNode eid_txt PacBio.FileTypes.txt&#45;&gt;EntryOutBindingFileNode PacBio.FileTypes.txt eid_txt</title>
<path fill="none" stroke="black" d="M393,-503.697C393,-495.983 393,-486.712 393,-478.112"/>
<polygon fill="black" stroke="black" points="396.5,-478.104 393,-468.104 389.5,-478.104 396.5,-478.104"/>
</g>
<!-- BindingInFileNode pbsmrtpipe.tasks.dev_txt_to_fasta&#45;0 PacBio.FileTypes.txt&#45;0.0 -->
<g id="node5" class="node"><title>BindingInFileNode pbsmrtpipe.tasks.dev_txt_to_fasta&#45;0 PacBio.FileTypes.txt&#45;0.0</title>
<ellipse fill="azure" stroke="azure" cx="393" cy="-162" rx="300.385" ry="18"/>
<text text-anchor="middle" x="393" y="-158.3" font-family="Times,serif" font-size="14.00">BindingInFileNode pbsmrtpipe.tasks.dev_txt_to_fasta&#45;0 PacBio.FileTypes.txt&#45;0.0</text>
</g>
<!-- BindingOutFileNode pbsmrtpipe_examples.tasks.dev_mk_example_txt&#45;0 PacBio.FileTypes.txt&#45;0.0&#45;&gt;BindingInFileNode pbsmrtpipe.tasks.dev_txt_to_fasta&#45;0 PacBio.FileTypes.txt&#45;0.0 -->
<g id="edge4" class="edge"><title>BindingOutFileNode pbsmrtpipe_examples.tasks.dev_mk_example_txt&#45;0 PacBio.FileTypes.txt&#45;0.0&#45;&gt;BindingInFileNode pbsmrtpipe.tasks.dev_txt_to_fasta&#45;0 PacBio.FileTypes.txt&#45;0.0</title>
<path fill="none" stroke="black" d="M393,-215.697C393,-207.983 393,-198.712 393,-190.112"/>
<polygon fill="black" stroke="black" points="396.5,-190.104 393,-180.104 389.5,-190.104 396.5,-190.104"/>
</g>
<!-- BindingInFileNode pbsmrtpipe.tasks.dev_txt_to_fasta&#45;0 PacBio.FileTypes.txt&#45;0.0&#45;&gt;TaskBindingNode pbsmrtpipe.tasks.dev_txt_to_fasta&#45;0 -->
<g id="edge5" class="edge"><title>BindingInFileNode pbsmrtpipe.tasks.dev_txt_to_fasta&#45;0 PacBio.FileTypes.txt&#45;0.0&#45;&gt;TaskBindingNode pbsmrtpipe.tasks.dev_txt_to_fasta&#45;0</title>
<path fill="none" stroke="black" d="M393,-143.697C393,-135.983 393,-126.712 393,-118.112"/>
<polygon fill="black" stroke="black" points="396.5,-118.104 393,-108.104 389.5,-118.104 396.5,-118.104"/>
</g>
<!-- BindingInFileNode pbsmrtpipe_examples.tasks.dev_mk_example_txt&#45;0 PacBio.FileTypes.txt&#45;0.0 -->
<g id="node7" class="node"><title>BindingInFileNode pbsmrtpipe_examples.tasks.dev_mk_example_txt&#45;0 PacBio.FileTypes.txt&#45;0.0</title>
<ellipse fill="azure" stroke="azure" cx="393" cy="-378" rx="357.202" ry="18"/>
<text text-anchor="middle" x="393" y="-374.3" font-family="Times,serif" font-size="14.00">BindingInFileNode pbsmrtpipe_examples.tasks.dev_mk_example_txt&#45;0 PacBio.FileTypes.txt&#45;0.0</text>
</g>
<!-- BindingInFileNode pbsmrtpipe_examples.tasks.dev_mk_example_txt&#45;0 PacBio.FileTypes.txt&#45;0.0&#45;&gt;TaskBindingNode pbsmrtpipe_examples.tasks.dev_mk_example_txt&#45;0 -->
<g id="edge6" class="edge"><title>BindingInFileNode pbsmrtpipe_examples.tasks.dev_mk_example_txt&#45;0 PacBio.FileTypes.txt&#45;0.0&#45;&gt;TaskBindingNode pbsmrtpipe_examples.tasks.dev_mk_example_txt&#45;0</title>
<path fill="none" stroke="black" d="M393,-359.697C393,-351.983 393,-342.712 393,-334.112"/>
<polygon fill="black" stroke="black" points="396.5,-334.104 393,-324.104 389.5,-334.104 396.5,-334.104"/>
</g>
<!-- EntryOutBindingFileNode PacBio.FileTypes.txt eid_txt&#45;&gt;BindingInFileNode pbsmrtpipe_examples.tasks.dev_mk_example_txt&#45;0 PacBio.FileTypes.txt&#45;0.0 -->
<g id="edge7" class="edge"><title>EntryOutBindingFileNode PacBio.FileTypes.txt eid_txt&#45;&gt;BindingInFileNode pbsmrtpipe_examples.tasks.dev_mk_example_txt&#45;0 PacBio.FileTypes.txt&#45;0.0</title>
<path fill="none" stroke="black" d="M393,-431.697C393,-423.983 393,-414.712 393,-406.112"/>
<polygon fill="black" stroke="black" points="396.5,-406.104 393,-396.104 389.5,-406.104 396.5,-406.104"/>
</g>
</g>
</svg>
