<?xml version="1.0" encoding="UTF-8" standalone="no"?>
<!DOCTYPE svg PUBLIC "-//W3C//DTD SVG 1.1//EN"
 "http://www.w3.org/Graphics/SVG/1.1/DTD/svg11.dtd">
<!-- Generated by graphviz version 2.36.0 (20140111.2315)
 -->
<!-- Title: G Pages: 1 -->
<svg width="810pt" height="548pt"
 viewBox="0.00 0.00 810.00 548.00" xmlns="http://www.w3.org/2000/svg" xmlns:xlink="http://www.w3.org/1999/xlink">
<g id="graph0" class="graph" transform="scale(1 1) rotate(0) translate(4 544)">
<title>G</title>
<polygon fill="white" stroke="none" points="-4,4 -4,-544 806,-544 806,4 -4,4"/>
<!-- EntryOutBindingFileNode PacBio.DataSet.SubreadSet eid_xml -->
<g id="node1" class="node"><title>EntryOutBindingFileNode PacBio.DataSet.SubreadSet eid_xml</title>
<polygon fill="azure" stroke="azure" points="583,-468 219,-468 219,-432 583,-432 583,-468"/>
<text text-anchor="middle" x="401" y="-446.3" font-family="Times,serif" font-size="14.00">EntryOutBindingFileNode PacBio.DataSet.SubreadSet eid_xml</text>
</g>
<!-- BindingInFileNode pbsmrtpipe_examples.tasks.dev_comparative_plots&#45;0 PacBio.DataSet.SubreadSet&#45;0.0 -->
<g id="node6" class="node"><title>BindingInFileNode pbsmrtpipe_examples.tasks.dev_comparative_plots&#45;0 PacBio.DataSet.SubreadSet&#45;0.0</title>
<ellipse fill="azure" stroke="azure" cx="401" cy="-378" rx="386.099" ry="18"/>
<text text-anchor="middle" x="401" y="-374.3" font-family="Times,serif" font-size="14.00">BindingInFileNode pbsmrtpipe_examples.tasks.dev_comparative_plots&#45;0 PacBio.DataSet.SubreadSet&#45;0.0</text>
</g>
<!-- EntryOutBindingFileNode PacBio.DataSet.SubreadSet eid_xml&#45;&gt;BindingInFileNode pbsmrtpipe_examples.tasks.dev_comparative_plots&#45;0 PacBio.DataSet.SubreadSet&#45;0.0 -->
<g id="edge1" class="edge"><title>EntryOutBindingFileNode PacBio.DataSet.SubreadSet eid_xml&#45;&gt;BindingInFileNode pbsmrtpipe_examples.tasks.dev_comparative_plots&#45;0 PacBio.DataSet.SubreadSet&#45;0.0</title>
<path fill="none" stroke="black" d="M401,-431.697C401,-423.983 401,-414.712 401,-406.112"/>
<polygon fill="black" stroke="black" points="404.5,-406.104 401,-396.104 397.5,-406.104 404.5,-406.104"/>
</g>
<!-- TaskBindingNode pbsmrtpipe_examples.tasks.dev_comparative_plots&#45;0 -->
<g id="node2" class="node"><title>TaskBindingNode pbsmrtpipe_examples.tasks.dev_comparative_plots&#45;0</title>
<polygon fill="aquamarine" stroke="aquamarine" points="690.259,-298.544 690.259,-313.456 520.815,-324 281.185,-324 111.741,-313.456 111.741,-298.544 281.185,-288 520.815,-288 690.259,-298.544"/>
<text text-anchor="middle" x="401" y="-302.3" font-family="Times,serif" font-size="14.00">TaskBindingNode pbsmrtpipe_examples.tasks.dev_comparative_plots&#45;0</text>
</g>
<!-- BindingOutFileNode pbsmrtpipe_examples.tasks.dev_comparative_plots&#45;0 PacBio.FileTypes.csv&#45;0.0 -->
<g id="node8" class="node"><title>BindingOutFileNode pbsmrtpipe_examples.tasks.dev_comparative_plots&#45;0 PacBio.FileTypes.csv&#45;0.0</title>
<polygon fill="none" stroke="azure" stroke-dasharray="1,5" points="802.541,-226.544 802.541,-241.456 567.324,-252 234.676,-252 -0.54126,-241.456 -0.54126,-226.544 234.676,-216 567.324,-216 802.541,-226.544"/>
<text text-anchor="middle" x="401" y="-230.3" font-family="Times,serif" font-size="14.00">BindingOutFileNode pbsmrtpipe_examples.tasks.dev_comparative_plots&#45;0 PacBio.FileTypes.csv&#45;0.0</text>
</g>
<!-- TaskBindingNode pbsmrtpipe_examples.tasks.dev_comparative_plots&#45;0&#45;&gt;BindingOutFileNode pbsmrtpipe_examples.tasks.dev_comparative_plots&#45;0 PacBio.FileTypes.csv&#45;0.0 -->
<g id="edge2" class="edge"><title>TaskBindingNode pbsmrtpipe_examples.tasks.dev_comparative_plots&#45;0&#45;&gt;BindingOutFileNode pbsmrtpipe_examples.tasks.dev_comparative_plots&#45;0 PacBio.FileTypes.csv&#45;0.0</title>
<path fill="none" stroke="black" d="M401,-287.697C401,-279.983 401,-270.712 401,-262.112"/>
<polygon fill="black" stroke="black" points="404.5,-262.104 401,-252.104 397.5,-262.104 404.5,-262.104"/>
</g>
<!-- BindingInFileNode pbsmrtpipe.tasks.dev_txt_to_fasta&#45;0 PacBio.FileTypes.txt&#45;0.0 -->
<g id="node3" class="node"><title>BindingInFileNode pbsmrtpipe.tasks.dev_txt_to_fasta&#45;0 PacBio.FileTypes.txt&#45;0.0</title>
<ellipse fill="none" stroke="azure" stroke-dasharray="1,5" cx="401" cy="-162" rx="300.385" ry="18"/>
<text text-anchor="middle" x="401" y="-158.3" font-family="Times,serif" font-size="14.00">BindingInFileNode pbsmrtpipe.tasks.dev_txt_to_fasta&#45;0 PacBio.FileTypes.txt&#45;0.0</text>
</g>
<!-- TaskBindingNode pbsmrtpipe.tasks.dev_txt_to_fasta&#45;0 -->
<g id="node5" class="node"><title>TaskBindingNode pbsmrtpipe.tasks.dev_txt_to_fasta&#45;0</title>
<polygon fill="aquamarine" stroke="aquamarine" points="624.011,-82.5442 624.011,-97.4558 493.374,-108 308.626,-108 177.989,-97.4558 177.989,-82.5442 308.626,-72 493.374,-72 624.011,-82.5442"/>
<text text-anchor="middle" x="401" y="-86.3" font-family="Times,serif" font-size="14.00">TaskBindingNode pbsmrtpipe.tasks.dev_txt_to_fasta&#45;0</text>
</g>
<!-- BindingInFileNode pbsmrtpipe.tasks.dev_txt_to_fasta&#45;0 PacBio.FileTypes.txt&#45;0.0&#45;&gt;TaskBindingNode pbsmrtpipe.tasks.dev_txt_to_fasta&#45;0 -->
<g id="edge3" class="edge"><title>BindingInFileNode pbsmrtpipe.tasks.dev_txt_to_fasta&#45;0 PacBio.FileTypes.txt&#45;0.0&#45;&gt;TaskBindingNode pbsmrtpipe.tasks.dev_txt_to_fasta&#45;0</title>
<path fill="none" stroke="black" d="M401,-143.697C401,-135.983 401,-126.712 401,-118.112"/>
<polygon fill="black" stroke="black" points="404.5,-118.104 401,-108.104 397.5,-118.104 404.5,-118.104"/>
</g>
<!-- BindingOutFileNode pbsmrtpipe.tasks.dev_txt_to_fasta&#45;0 PacBio.FileTypes.Fasta&#45;0.0 -->
<g id="node4" class="node"><title>BindingOutFileNode pbsmrtpipe.tasks.dev_txt_to_fasta&#45;0 PacBio.FileTypes.Fasta&#45;0.0</title>
<polygon fill="none" stroke="azure" stroke-dasharray="1,5" points="742.346,-10.5442 742.346,-25.4558 542.39,-36 259.61,-36 59.6538,-25.4558 59.6538,-10.5442 259.61,-3.55271e-15 542.39,-0 742.346,-10.5442"/>
<text text-anchor="middle" x="401" y="-14.3" font-family="Times,serif" font-size="14.00">BindingOutFileNode pbsmrtpipe.tasks.dev_txt_to_fasta&#45;0 PacBio.FileTypes.Fasta&#45;0.0</text>
</g>
<!-- TaskBindingNode pbsmrtpipe.tasks.dev_txt_to_fasta&#45;0&#45;&gt;BindingOutFileNode pbsmrtpipe.tasks.dev_txt_to_fasta&#45;0 PacBio.FileTypes.Fasta&#45;0.0 -->
<g id="edge4" class="edge"><title>TaskBindingNode pbsmrtpipe.tasks.dev_txt_to_fasta&#45;0&#45;&gt;BindingOutFileNode pbsmrtpipe.tasks.dev_txt_to_fasta&#45;0 PacBio.FileTypes.Fasta&#45;0.0</title>
<path fill="none" stroke="black" d="M401,-71.6966C401,-63.9827 401,-54.7125 401,-46.1124"/>
<polygon fill="black" stroke="black" points="404.5,-46.1043 401,-36.1043 397.5,-46.1044 404.5,-46.1043"/>
</g>
<!-- BindingInFileNode pbsmrtpipe_examples.tasks.dev_comparative_plots&#45;0 PacBio.DataSet.SubreadSet&#45;0.0&#45;&gt;TaskBindingNode pbsmrtpipe_examples.tasks.dev_comparative_plots&#45;0 -->
<g id="edge5" class="edge"><title>BindingInFileNode pbsmrtpipe_examples.tasks.dev_comparative_plots&#45;0 PacBio.DataSet.SubreadSet&#45;0.0&#45;&gt;TaskBindingNode pbsmrtpipe_examples.tasks.dev_comparative_plots&#45;0</title>
<path fill="none" stroke="black" d="M401,-359.697C401,-351.983 401,-342.712 401,-334.112"/>
<polygon fill="black" stroke="black" points="404.5,-334.104 401,-324.104 397.5,-334.104 404.5,-334.104"/>
</g>
<!-- EntryPointNode eid_xml PacBio.DataSet.SubreadSet -->
<g id="node7" class="node"><title>EntryPointNode eid_xml PacBio.DataSet.SubreadSet</title>
<polygon fill="mediumpurple" stroke="mediumpurple" points="401,-540 117.849,-522 401,-504 684.151,-522 401,-540"/>
<text text-anchor="middle" x="401" y="-518.3" font-family="Times,serif" font-size="14.00">EntryPointNode eid_xml PacBio.DataSet.SubreadSet</text>
</g>
<!-- EntryPointNode eid_xml PacBio.DataSet.SubreadSet&#45;&gt;EntryOutBindingFileNode PacBio.DataSet.SubreadSet eid_xml -->
<g id="edge6" class="edge"><title>EntryPointNode eid_xml PacBio.DataSet.SubreadSet&#45;&gt;EntryOutBindingFileNode PacBio.DataSet.SubreadSet eid_xml</title>
<path fill="none" stroke="black" d="M401,-503.697C401,-495.983 401,-486.712 401,-478.112"/>
<polygon fill="black" stroke="black" points="404.5,-478.104 401,-468.104 397.5,-478.104 404.5,-478.104"/>
</g>
<!-- BindingOutFileNode pbsmrtpipe_examples.tasks.dev_comparative_plots&#45;0 PacBio.FileTypes.csv&#45;0.0&#45;&gt;BindingInFileNode pbsmrtpipe.tasks.dev_txt_to_fasta&#45;0 PacBio.FileTypes.txt&#45;0.0 -->
<g id="edge7" class="edge"><title>BindingOutFileNode pbsmrtpipe_examples.tasks.dev_comparative_plots&#45;0 PacBio.FileTypes.csv&#45;0.0&#45;&gt;BindingInFileNode pbsmrtpipe.tasks.dev_txt_to_fasta&#45;0 PacBio.FileTypes.txt&#45;0.0</title>
<path fill="none" stroke="black" d="M401,-215.697C401,-207.983 401,-198.712 401,-190.112"/>
<polygon fill="black" stroke="black" points="404.5,-190.104 401,-180.104 397.5,-190.104 404.5,-190.104"/>
</g>
</g>
</svg>
