<?xml version="1.0" encoding="UTF-8" standalone="no"?>
<!DOCTYPE svg PUBLIC "-//W3C//DTD SVG 1.1//EN"
 "http://www.w3.org/Graphics/SVG/1.1/DTD/svg11.dtd">
<!-- Generated by graphviz version 2.36.0 (20140111.2315)
 -->
<!-- Title: G Pages: 1 -->
<svg width="808pt" height="332pt"
 viewBox="0.00 0.00 808.00 332.00" xmlns="http://www.w3.org/2000/svg" xmlns:xlink="http://www.w3.org/1999/xlink">
<g id="graph0" class="graph" transform="scale(1 1) rotate(0) translate(4 328)">
<title>G</title>
<polygon fill="white" stroke="none" points="-4,4 -4,-328 804,-328 804,4 -4,4"/>
<!-- EntryOutBindingFileNode PacBio.DataSet.SubreadSet eid_xml -->
<g id="node1" class="node"><title>EntryOutBindingFileNode PacBio.DataSet.SubreadSet eid_xml</title>
<polygon fill="azure" stroke="azure" points="582,-252 218,-252 218,-216 582,-216 582,-252"/>
<text text-anchor="middle" x="400" y="-230.3" font-family="Times,serif" font-size="14.00">EntryOutBindingFileNode PacBio.DataSet.SubreadSet eid_xml</text>
</g>
<!-- BindingInFileNode pbsmrtpipe_examples.tasks.dev_interact_with_sset&#45;0 PacBio.DataSet.SubreadSet&#45;0.0 -->
<g id="node2" class="node"><title>BindingInFileNode pbsmrtpipe_examples.tasks.dev_interact_with_sset&#45;0 PacBio.DataSet.SubreadSet&#45;0.0</title>
<ellipse fill="azure" stroke="azure" cx="400" cy="-162" rx="384.149" ry="18"/>
<text text-anchor="middle" x="400" y="-158.3" font-family="Times,serif" font-size="14.00">BindingInFileNode pbsmrtpipe_examples.tasks.dev_interact_with_sset&#45;0 PacBio.DataSet.SubreadSet&#45;0.0</text>
</g>
<!-- EntryOutBindingFileNode PacBio.DataSet.SubreadSet eid_xml&#45;&gt;BindingInFileNode pbsmrtpipe_examples.tasks.dev_interact_with_sset&#45;0 PacBio.DataSet.SubreadSet&#45;0.0 -->
<g id="edge1" class="edge"><title>EntryOutBindingFileNode PacBio.DataSet.SubreadSet eid_xml&#45;&gt;BindingInFileNode pbsmrtpipe_examples.tasks.dev_interact_with_sset&#45;0 PacBio.DataSet.SubreadSet&#45;0.0</title>
<path fill="none" stroke="black" d="M400,-215.697C400,-207.983 400,-198.712 400,-190.112"/>
<polygon fill="black" stroke="black" points="403.5,-190.104 400,-180.104 396.5,-190.104 403.5,-190.104"/>
</g>
<!-- TaskBindingNode pbsmrtpipe_examples.tasks.dev_interact_with_sset&#45;0 -->
<g id="node3" class="node"><title>TaskBindingNode pbsmrtpipe_examples.tasks.dev_interact_with_sset&#45;0</title>
<polygon fill="aquamarine" stroke="aquamarine" points="688.148,-82.5442 688.148,-97.4558 519.355,-108 280.645,-108 111.852,-97.4558 111.852,-82.5442 280.645,-72 519.355,-72 688.148,-82.5442"/>
<text text-anchor="middle" x="400" y="-86.3" font-family="Times,serif" font-size="14.00">TaskBindingNode pbsmrtpipe_examples.tasks.dev_interact_with_sset&#45;0</text>
</g>
<!-- BindingInFileNode pbsmrtpipe_examples.tasks.dev_interact_with_sset&#45;0 PacBio.DataSet.SubreadSet&#45;0.0&#45;&gt;TaskBindingNode pbsmrtpipe_examples.tasks.dev_interact_with_sset&#45;0 -->
<g id="edge2" class="edge"><title>BindingInFileNode pbsmrtpipe_examples.tasks.dev_interact_with_sset&#45;0 PacBio.DataSet.SubreadSet&#45;0.0&#45;&gt;TaskBindingNode pbsmrtpipe_examples.tasks.dev_interact_with_sset&#45;0</title>
<path fill="none" stroke="black" d="M400,-143.697C400,-135.983 400,-126.712 400,-118.112"/>
<polygon fill="black" stroke="black" points="403.5,-118.104 400,-108.104 396.5,-118.104 403.5,-118.104"/>
</g>
<!-- BindingOutFileNode pbsmrtpipe_examples.tasks.dev_interact_with_sset&#45;0 PacBio.FileTypes.csv&#45;0.0 -->
<g id="node4" class="node"><title>BindingOutFileNode pbsmrtpipe_examples.tasks.dev_interact_with_sset&#45;0 PacBio.FileTypes.csv&#45;0.0</title>
<polygon fill="azure" stroke="azure" points="799.931,-10.5442 799.931,-25.4558 565.657,-36 234.343,-36 0.0689544,-25.4558 0.0689544,-10.5442 234.343,-3.55271e-15 565.657,-0 799.931,-10.5442"/>
<text text-anchor="middle" x="400" y="-14.3" font-family="Times,serif" font-size="14.00">BindingOutFileNode pbsmrtpipe_examples.tasks.dev_interact_with_sset&#45;0 PacBio.FileTypes.csv&#45;0.0</text>
</g>
<!-- TaskBindingNode pbsmrtpipe_examples.tasks.dev_interact_with_sset&#45;0&#45;&gt;BindingOutFileNode pbsmrtpipe_examples.tasks.dev_interact_with_sset&#45;0 PacBio.FileTypes.csv&#45;0.0 -->
<g id="edge3" class="edge"><title>TaskBindingNode pbsmrtpipe_examples.tasks.dev_interact_with_sset&#45;0&#45;&gt;BindingOutFileNode pbsmrtpipe_examples.tasks.dev_interact_with_sset&#45;0 PacBio.FileTypes.csv&#45;0.0</title>
<path fill="none" stroke="black" d="M400,-71.6966C400,-63.9827 400,-54.7125 400,-46.1124"/>
<polygon fill="black" stroke="black" points="403.5,-46.1043 400,-36.1043 396.5,-46.1044 403.5,-46.1043"/>
</g>
<!-- EntryPointNode eid_xml PacBio.DataSet.SubreadSet -->
<g id="node5" class="node"><title>EntryPointNode eid_xml PacBio.DataSet.SubreadSet</title>
<polygon fill="mediumpurple" stroke="mediumpurple" points="400,-324 116.849,-306 400,-288 683.151,-306 400,-324"/>
<text text-anchor="middle" x="400" y="-302.3" font-family="Times,serif" font-size="14.00">EntryPointNode eid_xml PacBio.DataSet.SubreadSet</text>
</g>
<!-- EntryPointNode eid_xml PacBio.DataSet.SubreadSet&#45;&gt;EntryOutBindingFileNode PacBio.DataSet.SubreadSet eid_xml -->
<g id="edge4" class="edge"><title>EntryPointNode eid_xml PacBio.DataSet.SubreadSet&#45;&gt;EntryOutBindingFileNode PacBio.DataSet.SubreadSet eid_xml</title>
<path fill="none" stroke="black" d="M400,-287.697C400,-279.983 400,-270.712 400,-262.112"/>
<polygon fill="black" stroke="black" points="403.5,-262.104 400,-252.104 396.5,-262.104 403.5,-262.104"/>
</g>
</g>
</svg>
