<?xml version="1.0" encoding="UTF-8" standalone="no"?>
<!DOCTYPE svg PUBLIC "-//W3C//DTD SVG 1.1//EN"
 "http://www.w3.org/Graphics/SVG/1.1/DTD/svg11.dtd">
<!-- Generated by graphviz version 2.36.0 (20140111.2315)
 -->
<!-- Title: G Pages: 1 -->
<svg width="810pt" height="332pt"
 viewBox="0.00 0.00 810.00 332.00" xmlns="http://www.w3.org/2000/svg" xmlns:xlink="http://www.w3.org/1999/xlink">
<g id="graph0" class="graph" transform="scale(1 1) rotate(0) translate(4 328)">
<title>G</title>
<polygon fill="white" stroke="none" points="-4,4 -4,-328 806,-328 806,4 -4,4"/>
<!-- EntryOutBindingFileNode PacBio.DataSet.SubreadSet eid_xml -->
<g id="node1" class="node"><title>EntryOutBindingFileNode PacBio.DataSet.SubreadSet eid_xml</title>
<polygon fill="azure" stroke="azure" points="583,-252 219,-252 219,-216 583,-216 583,-252"/>
<text text-anchor="middle" x="401" y="-230.3" font-family="Times,serif" font-size="14.00">EntryOutBindingFileNode PacBio.DataSet.SubreadSet eid_xml</text>
</g>
<!-- BindingInFileNode pbsmrtpipe_examples.tasks.dev_comparative_plots&#45;0 PacBio.DataSet.SubreadSet&#45;0.0 -->
<g id="node3" class="node"><title>BindingInFileNode pbsmrtpipe_examples.tasks.dev_comparative_plots&#45;0 PacBio.DataSet.SubreadSet&#45;0.0</title>
<ellipse fill="azure" stroke="azure" cx="401" cy="-162" rx="386.099" ry="18"/>
<text text-anchor="middle" x="401" y="-158.3" font-family="Times,serif" font-size="14.00">BindingInFileNode pbsmrtpipe_examples.tasks.dev_comparative_plots&#45;0 PacBio.DataSet.SubreadSet&#45;0.0</text>
</g>
<!-- EntryOutBindingFileNode PacBio.DataSet.SubreadSet eid_xml&#45;&gt;BindingInFileNode pbsmrtpipe_examples.tasks.dev_comparative_plots&#45;0 PacBio.DataSet.SubreadSet&#45;0.0 -->
<g id="edge1" class="edge"><title>EntryOutBindingFileNode PacBio.DataSet.SubreadSet eid_xml&#45;&gt;BindingInFileNode pbsmrtpipe_examples.tasks.dev_comparative_plots&#45;0 PacBio.DataSet.SubreadSet&#45;0.0</title>
<path fill="none" stroke="black" d="M401,-215.697C401,-207.983 401,-198.712 401,-190.112"/>
<polygon fill="black" stroke="black" points="404.5,-190.104 401,-180.104 397.5,-190.104 404.5,-190.104"/>
</g>
<!-- TaskBindingNode pbsmrtpipe_examples.tasks.dev_comparative_plots&#45;0 -->
<g id="node2" class="node"><title>TaskBindingNode pbsmrtpipe_examples.tasks.dev_comparative_plots&#45;0</title>
<polygon fill="aquamarine" stroke="aquamarine" points="690.259,-82.5442 690.259,-97.4558 520.815,-108 281.185,-108 111.741,-97.4558 111.741,-82.5442 281.185,-72 520.815,-72 690.259,-82.5442"/>
<text text-anchor="middle" x="401" y="-86.3" font-family="Times,serif" font-size="14.00">TaskBindingNode pbsmrtpipe_examples.tasks.dev_comparative_plots&#45;0</text>
</g>
<!-- BindingOutFileNode pbsmrtpipe_examples.tasks.dev_comparative_plots&#45;0 PacBio.FileTypes.csv&#45;0.0 -->
<g id="node5" class="node"><title>BindingOutFileNode pbsmrtpipe_examples.tasks.dev_comparative_plots&#45;0 PacBio.FileTypes.csv&#45;0.0</title>
<polygon fill="azure" stroke="azure" points="802.541,-10.5442 802.541,-25.4558 567.324,-36 234.676,-36 -0.54126,-25.4558 -0.54126,-10.5442 234.676,-3.55271e-15 567.324,-0 802.541,-10.5442"/>
<text text-anchor="middle" x="401" y="-14.3" font-family="Times,serif" font-size="14.00">BindingOutFileNode pbsmrtpipe_examples.tasks.dev_comparative_plots&#45;0 PacBio.FileTypes.csv&#45;0.0</text>
</g>
<!-- TaskBindingNode pbsmrtpipe_examples.tasks.dev_comparative_plots&#45;0&#45;&gt;BindingOutFileNode pbsmrtpipe_examples.tasks.dev_comparative_plots&#45;0 PacBio.FileTypes.csv&#45;0.0 -->
<g id="edge2" class="edge"><title>TaskBindingNode pbsmrtpipe_examples.tasks.dev_comparative_plots&#45;0&#45;&gt;BindingOutFileNode pbsmrtpipe_examples.tasks.dev_comparative_plots&#45;0 PacBio.FileTypes.csv&#45;0.0</title>
<path fill="none" stroke="black" d="M401,-71.6966C401,-63.9827 401,-54.7125 401,-46.1124"/>
<polygon fill="black" stroke="black" points="404.5,-46.1043 401,-36.1043 397.5,-46.1044 404.5,-46.1043"/>
</g>
<!-- BindingInFileNode pbsmrtpipe_examples.tasks.dev_comparative_plots&#45;0 PacBio.DataSet.SubreadSet&#45;0.0&#45;&gt;TaskBindingNode pbsmrtpipe_examples.tasks.dev_comparative_plots&#45;0 -->
<g id="edge3" class="edge"><title>BindingInFileNode pbsmrtpipe_examples.tasks.dev_comparative_plots&#45;0 PacBio.DataSet.SubreadSet&#45;0.0&#45;&gt;TaskBindingNode pbsmrtpipe_examples.tasks.dev_comparative_plots&#45;0</title>
<path fill="none" stroke="black" d="M401,-143.697C401,-135.983 401,-126.712 401,-118.112"/>
<polygon fill="black" stroke="black" points="404.5,-118.104 401,-108.104 397.5,-118.104 404.5,-118.104"/>
</g>
<!-- EntryPointNode eid_xml PacBio.DataSet.SubreadSet -->
<g id="node4" class="node"><title>EntryPointNode eid_xml PacBio.DataSet.SubreadSet</title>
<polygon fill="mediumpurple" stroke="mediumpurple" points="401,-324 117.849,-306 401,-288 684.151,-306 401,-324"/>
<text text-anchor="middle" x="401" y="-302.3" font-family="Times,serif" font-size="14.00">EntryPointNode eid_xml PacBio.DataSet.SubreadSet</text>
</g>
<!-- EntryPointNode eid_xml PacBio.DataSet.SubreadSet&#45;&gt;EntryOutBindingFileNode PacBio.DataSet.SubreadSet eid_xml -->
<g id="edge4" class="edge"><title>EntryPointNode eid_xml PacBio.DataSet.SubreadSet&#45;&gt;EntryOutBindingFileNode PacBio.DataSet.SubreadSet eid_xml</title>
<path fill="none" stroke="black" d="M401,-287.697C401,-279.983 401,-270.712 401,-262.112"/>
<polygon fill="black" stroke="black" points="404.5,-262.104 401,-252.104 397.5,-262.104 404.5,-262.104"/>
</g>
</g>
</svg>
