<?xml version="1.0" encoding="UTF-8" standalone="no"?>
<!DOCTYPE svg PUBLIC "-//W3C//DTD SVG 1.1//EN"
 "http://www.w3.org/Graphics/SVG/1.1/DTD/svg11.dtd">
<!-- Generated by graphviz version 2.36.0 (20140111.2315)
 -->
<!-- Title: G Pages: 1 -->
<svg width="980pt" height="332pt"
 viewBox="0.00 0.00 980.00 332.00" xmlns="http://www.w3.org/2000/svg" xmlns:xlink="http://www.w3.org/1999/xlink">
<g id="graph0" class="graph" transform="scale(1 1) rotate(0) translate(4 328)">
<title>G</title>
<polygon fill="white" stroke="none" points="-4,4 -4,-328 976,-328 976,4 -4,4"/>
<!-- BindingOutFileNode pbsmrtpipe_examples.tasks.dev_interact_with_multiple_mapped_ssets&#45;0 PacBio.FileTypes.pickle&#45;0.0 -->
<g id="node1" class="node"><title>BindingOutFileNode pbsmrtpipe_examples.tasks.dev_interact_with_multiple_mapped_ssets&#45;0 PacBio.FileTypes.pickle&#45;0.0</title>
<polygon fill="azure" stroke="azure" points="972.225,-10.5442 972.225,-25.4558 687.401,-36 284.599,-36 -0.225447,-25.4558 -0.225447,-10.5442 284.599,-3.55271e-15 687.401,-0 972.225,-10.5442"/>
<text text-anchor="middle" x="486" y="-14.3" font-family="Times,serif" font-size="14.00">BindingOutFileNode pbsmrtpipe_examples.tasks.dev_interact_with_multiple_mapped_ssets&#45;0 PacBio.FileTypes.pickle&#45;0.0</text>
</g>
<!-- EntryPointNode eid_csv PacBio.FileTypes.csv -->
<g id="node2" class="node"><title>EntryPointNode eid_csv PacBio.FileTypes.csv</title>
<polygon fill="mediumpurple" stroke="mediumpurple" points="486,-324 235.984,-306 486,-288 736.016,-306 486,-324"/>
<text text-anchor="middle" x="486" y="-302.3" font-family="Times,serif" font-size="14.00">EntryPointNode eid_csv PacBio.FileTypes.csv</text>
</g>
<!-- EntryOutBindingFileNode PacBio.FileTypes.csv eid_csv -->
<g id="node5" class="node"><title>EntryOutBindingFileNode PacBio.FileTypes.csv eid_csv</title>
<polygon fill="azure" stroke="azure" points="650,-252 322,-252 322,-216 650,-216 650,-252"/>
<text text-anchor="middle" x="486" y="-230.3" font-family="Times,serif" font-size="14.00">EntryOutBindingFileNode PacBio.FileTypes.csv eid_csv</text>
</g>
<!-- EntryPointNode eid_csv PacBio.FileTypes.csv&#45;&gt;EntryOutBindingFileNode PacBio.FileTypes.csv eid_csv -->
<g id="edge1" class="edge"><title>EntryPointNode eid_csv PacBio.FileTypes.csv&#45;&gt;EntryOutBindingFileNode PacBio.FileTypes.csv eid_csv</title>
<path fill="none" stroke="black" d="M486,-287.697C486,-279.983 486,-270.712 486,-262.112"/>
<polygon fill="black" stroke="black" points="489.5,-262.104 486,-252.104 482.5,-262.104 489.5,-262.104"/>
</g>
<!-- BindingInFileNode pbsmrtpipe_examples.tasks.dev_interact_with_multiple_mapped_ssets&#45;0 PacBio.FileTypes.csv&#45;0.0 -->
<g id="node3" class="node"><title>BindingInFileNode pbsmrtpipe_examples.tasks.dev_interact_with_multiple_mapped_ssets&#45;0 PacBio.FileTypes.csv&#45;0.0</title>
<ellipse fill="azure" stroke="azure" cx="486" cy="-162" rx="434.242" ry="18"/>
<text text-anchor="middle" x="486" y="-158.3" font-family="Times,serif" font-size="14.00">BindingInFileNode pbsmrtpipe_examples.tasks.dev_interact_with_multiple_mapped_ssets&#45;0 PacBio.FileTypes.csv&#45;0.0</text>
</g>
<!-- TaskBindingNode pbsmrtpipe_examples.tasks.dev_interact_with_multiple_mapped_ssets&#45;0 -->
<g id="node4" class="node"><title>TaskBindingNode pbsmrtpipe_examples.tasks.dev_interact_with_multiple_mapped_ssets&#45;0</title>
<polygon fill="aquamarine" stroke="aquamarine" points="850.114,-82.5442 850.114,-97.4558 636.821,-108 335.179,-108 121.886,-97.4558 121.886,-82.5442 335.179,-72 636.821,-72 850.114,-82.5442"/>
<text text-anchor="middle" x="486" y="-86.3" font-family="Times,serif" font-size="14.00">TaskBindingNode pbsmrtpipe_examples.tasks.dev_interact_with_multiple_mapped_ssets&#45;0</text>
</g>
<!-- BindingInFileNode pbsmrtpipe_examples.tasks.dev_interact_with_multiple_mapped_ssets&#45;0 PacBio.FileTypes.csv&#45;0.0&#45;&gt;TaskBindingNode pbsmrtpipe_examples.tasks.dev_interact_with_multiple_mapped_ssets&#45;0 -->
<g id="edge2" class="edge"><title>BindingInFileNode pbsmrtpipe_examples.tasks.dev_interact_with_multiple_mapped_ssets&#45;0 PacBio.FileTypes.csv&#45;0.0&#45;&gt;TaskBindingNode pbsmrtpipe_examples.tasks.dev_interact_with_multiple_mapped_ssets&#45;0</title>
<path fill="none" stroke="black" d="M486,-143.697C486,-135.983 486,-126.712 486,-118.112"/>
<polygon fill="black" stroke="black" points="489.5,-118.104 486,-108.104 482.5,-118.104 489.5,-118.104"/>
</g>
<!-- TaskBindingNode pbsmrtpipe_examples.tasks.dev_interact_with_multiple_mapped_ssets&#45;0&#45;&gt;BindingOutFileNode pbsmrtpipe_examples.tasks.dev_interact_with_multiple_mapped_ssets&#45;0 PacBio.FileTypes.pickle&#45;0.0 -->
<g id="edge3" class="edge"><title>TaskBindingNode pbsmrtpipe_examples.tasks.dev_interact_with_multiple_mapped_ssets&#45;0&#45;&gt;BindingOutFileNode pbsmrtpipe_examples.tasks.dev_interact_with_multiple_mapped_ssets&#45;0 PacBio.FileTypes.pickle&#45;0.0</title>
<path fill="none" stroke="black" d="M486,-71.6966C486,-63.9827 486,-54.7125 486,-46.1124"/>
<polygon fill="black" stroke="black" points="489.5,-46.1043 486,-36.1043 482.5,-46.1044 489.5,-46.1043"/>
</g>
<!-- EntryOutBindingFileNode PacBio.FileTypes.csv eid_csv&#45;&gt;BindingInFileNode pbsmrtpipe_examples.tasks.dev_interact_with_multiple_mapped_ssets&#45;0 PacBio.FileTypes.csv&#45;0.0 -->
<g id="edge4" class="edge"><title>EntryOutBindingFileNode PacBio.FileTypes.csv eid_csv&#45;&gt;BindingInFileNode pbsmrtpipe_examples.tasks.dev_interact_with_multiple_mapped_ssets&#45;0 PacBio.FileTypes.csv&#45;0.0</title>
<path fill="none" stroke="black" d="M486,-215.697C486,-207.983 486,-198.712 486,-190.112"/>
<polygon fill="black" stroke="black" points="489.5,-190.104 486,-180.104 482.5,-190.104 489.5,-190.104"/>
</g>
</g>
</svg>
